<svg width="22" height="16" viewBox="0 0 22 16" fill="none" xmlns="http://www.w3.org/2000/svg">
<mask id="mask0_2_273" style="mask-type:alpha" maskUnits="userSpaceOnUse" x="0" y="0" width="22" height="16">
<path fill-rule="evenodd" clip-rule="evenodd" d="M11 0.5C6 0.5 1.73 3.61 0 8C1.73 12.39 6 15.5 11 15.5C16 15.5 20.27 12.39 22 8C20.27 3.61 16 0.5 11 0.5ZM11 13C8.24 13 6 10.76 6 8C6 5.24 8.24 3 11 3C13.76 3 16 5.24 16 8C16 10.76 13.76 13 11 13ZM11 5C9.34 5 8 6.34 8 8C8 9.66 9.34 11 11 11C12.66 11 14 9.66 14 8C14 6.34 12.66 5 11 5Z" fill="white"/>
</mask>
<g mask="url(#mask0_2_273)">
<g filter="url(#filter0_d_2_273)">
<rect x="-2" y="-5" width="26" height="26" fill="#191919"/>
</g>
</g>
<defs>
<filter id="filter0_d_2_273" x="-6" y="-5" width="34" height="34" filterUnits="userSpaceOnUse" color-interpolation-filters="sRGB">
<feFlood flood-opacity="0" result="BackgroundImageFix"/>
<feColorMatrix in="SourceAlpha" type="matrix" values="0 0 0 0 0 0 0 0 0 0 0 0 0 0 0 0 0 0 127 0" result="hardAlpha"/>
<feOffset dy="4"/>
<feGaussianBlur stdDeviation="2"/>
<feComposite in2="hardAlpha" operator="out"/>
<feColorMatrix type="matrix" values="0 0 0 0 0 0 0 0 0 0 0 0 0 0 0 0 0 0 0.25 0"/>
<feBlend mode="normal" in2="BackgroundImageFix" result="effect1_dropShadow_2_273"/>
<feBlend mode="normal" in="SourceGraphic" in2="effect1_dropShadow_2_273" result="shape"/>
</filter>
</defs>
</svg>
